<svg xmlns="http://www.w3.org/2000/svg" version="1.1" xmlns:xlink="http://www.w3.org/1999/xlink" width="580" height="459" viewBox="0 0 580 459">
  <svg xml:space="preserve" width="580" height="459" data-version="2" data-id="lg_CCPKzPN6ilNFvZhUng" viewBox="0 0 580 459" x="0" y="0">
    <rect width="100%" height="100%" fill="transparent"></rect>
    <path fill="#fff" d="M5.5 258.74q0-19.26 5.75-38.52 5.74-19.26 16.81-37Q39.12 165.48 55 150.19q15.88-15.29 36.24-26.61t44.69-17.74q24.33-6.42 52.2-6.42 24.84 0 45.62 3.97 20.78 3.97 37.42 10.48 16.64 6.5 29.14 14.53 12.5 8.02 20.61 16.13 7.27-20.1 14.79-38.35 7.51-18.25 16.47-33.79 8.95-15.54 20.02-28.04 11.06-12.51 25.51-21.38 14.44-8.87 32.86-13.6 18.41-4.73 42.07-4.73 16.55 0 29.48 5.16 12.92 5.15 21.88 14.1 8.95 8.96 13.6 21.12 4.64 12.17 4.64 26.02 0 14.19-5.07 27.88-5.06 13.68-15.62 26.94-10.56 13.26-26.78 26.1-16.22 12.84-38.69 25.35 20.44 1.69 35.48 9.54 15.03 7.86 24.92 19.94 9.88 12.08 14.78 27.45 4.9 15.37 4.9 31.93 0 14.19-3.21 27.71 5.07-2.71 10.73-5.75t10.56-5.74l10.98-5.91q2.53-1.02 4.22-1.02 4.06 0 4.06 4.06 0 2.87-1.95 5.23-1.94 2.37-5.06 4.48-3.13 2.11-7.1 4.23-3.97 2.11-8.03 4.3-5.91 3.38-10.64 6.42t-10.3 6.09q-7.44 34.12-23.32 60.73-15.88 26.61-37.84 44.94-21.97 18.33-49 27.88-27.03 9.54-56.59 9.54-13.52 0-26.78-2.36-13.26-2.37-25.6-6.51-12.33-4.14-23.48-9.63-11.15-5.49-20.53-11.74-9.37-6.25-16.64-12.84-7.26-6.59-11.82-12.84-34.3 0-64.88-2.96-30.58-2.95-56.43-9.54-25.85-6.59-46.63-17.32t-35.31-26.1q-14.52-15.37-22.3-35.9-7.77-20.53-7.77-46.88m228.75-53.73q0-2.19 5.75-5.4 5.74-3.21 15.71-6.68 9.97-3.46 23.65-7.01 13.69-3.55 29.74-6.59l8.11-24.49q-7.94-7.27-18.59-13.35-10.64-6.08-25.68-10.48-15.03-4.39-35.48-6.92-20.44-2.54-47.81-2.54-27.2 0-50.26 5.24t-41.9 14.45q-18.83 9.2-33.28 21.71-14.44 12.5-24.24 27.11-9.8 14.61-14.79 30.66-4.98 16.05-4.98 32.1 0 15.21 5.24 29.91t15.03 27.96q9.8 13.26 23.99 24.58 14.2 11.32 32.02 19.51 17.82 8.20 39.11 12.84 21.29 4.65 45.45 4.65h1.01q-.34-2.37-.51-4.48-.17-2.11-.17-4.14 0-8.11 2.45-13.85 2.45-5.75 6.51-9.46 4.05-3.72 9.29-5.41 5.24-1.69 10.81-1.69 7.1 0 14.11 2.2 7.01 2.19 12.42 6.25 10.3-10.48 18.75-23.91t15.63-28.97q7.18-15.54 13.34-32.69 6.17-17.15 12.08-35.23-8.61.51-17.14.68-8.54.17-17.66.17-12.84 0-20.27-4.06-7.44-4.05-7.44-12.67m19.6 176.04q27.54-2.19 56.26-7.09t58.46-13.18q29.73-8.28 60.73-20.19 31-11.91 63.27-28.13 1.69-7.77 3.3-18.24 1.60-10.48 1.60-25.35 0-8.61-1.01-17.82-1.02-9.21-3.63-17.99-2.62-8.79-7.02-16.64-4.39-7.86-11.32-14.03-6.92-6.16-16.47-10.05-9.54-3.88-22.38-4.56-10.65 4.56-20.78 8.62-10.14 4.05-21.12 7.60t-23.32 6.5q-12.33 2.96-27.53 5.16-5.24 23.82-12.51 46.88-7.26 23.06-18.07 43.59-10.82 20.52-25.85 37.5-15.04 16.98-35.48 28.64.51 2.19 1.27 4.31.76 2.11 1.60 4.47m138.71-211.52q17.74 0 33.95 2.03 45.28-25 67.67-51.78Q516.56 93 516.56 65.30q0-10.14-3.29-18.76-3.30-8.61-9.89-14.87-6.58-6.25-16.64-9.79-10.05-3.55-23.40-3.55-21.79 0-37.16 5.40-15.38 5.41-26.19 15.29-10.81 9.89-17.82 23.83-7.02 13.93-12.08 31-5.07 17.06-9.13 36.83-4.05 19.76-8.61 41.39 6.25-.51 10.98-.93 4.73-.42 9.12-.85 4.39-.42 9.12-.59 4.74-.17 10.99-.17m97.82 160.16q-15.04 7.27-30.33 15.04t-31.85 15.21q-16.55 7.43-34.71 14.10-18.17 6.68-38.86 11.83-20.70 5.15-44.43 8.28-23.74 3.12-51.28 3.46 7.60 7.27 18.67 14.87 11.06 7.60 23.99 13.85 12.92 6.25 27.11 10.22 14.20 3.97 28.05 3.97 28.04 0 50.35-8.70 22.30-8.70 38.94-23.82 16.64-15.12 27.70-35.31 11.07-20.19 16.65-43m-141.41-141.40q-.68 3.21-1.18 6.33-.51 3.13-1.52 6.17 9.29-1.52 16.47-3.38 7.18-1.86 13.68-4.14 6.51-2.28 12.84-4.90 6.34-2.62 14.28-5.66-1.52-.17-2.71-.17h-2.70q-7.09.51-12.84 1.02-5.74.50-11.23 1.18-5.49.68-11.49 1.52t-13.60 2.03m-86.16 16.38q7.60.68 15.03.93 7.44.26 14.70.26h7.60q.68-1.86 1.19-3.55.50-1.69 1.18-3.38-12.17 2.37-22.05 4.06-9.88 1.68-17.65 1.68"></path>
    <rect width="568" height="448.72" x="-284" y="-224.36" fill="none" rx="0" ry="0" transform="translate(290 229.5)"></rect>
  </svg>
</svg>